<?xml version="1.0" encoding="UTF-8"?>
<svg version="1.1" viewBox="0 0 1024 1024" width="1024" height="1024" xmlns="http://www.w3.org/2000/svg">
<path transform="translate(0)" d="m0 0h1024v1024h-1024z"/>
<path transform="translate(558,678)" d="m0 0h7l-9 19-9 17-14 24-9 14-11 16-12 16-9 11-12 14-7 7-5 6-8 7-15 14-16 12-15 10-20 11-19 8-15 5-20 5-15 2h-32l-17-3-16-6-12-7-12-11-9-13-6-14-3-15v-17l3-15 5-13 10-16 12-13 11-10 16-11 18-10 21-9 24-8 32-7 40-6 41-4 72-6z"/>
<path transform="translate(72,122)" d="m0 0h5l10 7 15 9 23 11 26 10 24 7 32 8 44 8 82 11 36 7 32 8 33 11 26 11 25 12 19 11 14 9 15 11 11 9 10 9 17 17 11 14 9 12 9 15 12 23 8 21 6 21 5 24 2 18v56l-3 24-5 26-8 30-7 20-13 32-7 16 13-3 26-5 36-10 26-9 25-12 14-10 6-6h2l2-4 9-11 11-21 6-16 7-26 10-40 8-24 11-25 11-19 13-18 14-15 10-10 10-8 13-9 16-9 14-6 11-4-11-7-12-9-16-13-15-9-16-7-18-5-19-2h-14l-19 2-21 5-18 6-15 7-15 8-16 11-10 8-11 9-17 17-3-1 1-5 10-13 7-7 7-8 17-14 15-10 19-10 20-8 22-6 21-3h27l19 3 21 7 12 6 12 8 10 8 11 9 14 10 14 8 12 5 1 5-3 2-17 3-17 6-23 12-16 12-10 9-12 12-11 15-11 18-8 16-8 19-8 26-14 55-8 23-11 21-8 11-11 12-10 9-14 9-16 8-19 8-31 10-28 7-27 5-17 3-14 28-12 22-10 17-12 19-14 19-9 12-9 11-10 11-7 8-15 15-11 9-13 11-21 14-21 12-20 9-24 8-17 4-14 2h-36l-20-4-15-6-15-9-12-11-8-10-8-16-5-16-1-5v-25l4-17 6-15 7-12 8-10 7-8 11-9 13-10 19-11 23-10 30-10 30-7 34-6 63-7 68-6 40-5 6-12 12-29 10-27 8-28 6-29 3-23 1-11v-40l-3-27-5-24-6-20-10-23-9-17-14-20-9-11-9-10-16-16-14-11-17-12-18-11-27-14-25-11-31-11-30-8-33-7-39-6-57-8-32-6-30-7-31-9-26-10-26-12-16-9 6 17 8 19 10 19 9 14 12 16 12 14 20 20 14 11 13 10 20 13 18 10 16 8 20 9 27 11 29 12 29 13 24 12 24 14 16 10 23 16 13 10 15 13 10 9 13 12 9 10 13 16 10 15 9 15 9 19 8 24 5 22 1 6v15l-4-1-4-22-7-23-7-16-11-21-10-15-11-14-11-12-6-7-8-7-7-7-11-9-13-11-20-15-26-17-21-12-29-15-31-14-42-17-23-10-25-12-19-11-18-12-16-12-11-9-13-12-18-18-11-14-11-15-13-22-11-23-9-27-3-15v-6zm486 556-35 4-95 8-33 4-35 6-25 6-26 9-18 8-21 12-13 10-10 9-7 7-10 14-8 16-3 12-1 7v17l3 15 7 16 9 12 7 7 14 9 12 5 16 4 7 1h32l19-3 23-6 20-8 16-8 16-9 18-13 11-9 15-14 9-8 7-8 11-12 11-14 13-17 10-15 12-19 14-25 10-19 5-11z" fill="#F7F7F7"/>
</svg>
