<?xml version="1.0" encoding="UTF-8"?>
<svg version="1.1" viewBox="0 0 1028 1028" width="1028" height="1028" xmlns="http://www.w3.org/2000/svg">
<path transform="translate(55,73)" d="m0 0 4 2 14 9 15 8 19 8 19 7 36 11 26 7 41 9 44 8 35 6 25 4 30 6 30 8 33 11 20 8 18 8 16 8 16 9 9 5 21 14 13 10 11 9 3 2v2l4 2 22 22 11 14 9 12 11 17 14 28 8 22 5 19 4 21 2 18v46l-4 33-11 52-12 48-8 29-3 9 32-7 29-8 21-8 16-8 12-7 11-8 11-9 9-9 12-16 10-19 6-18 3-15 2-14 4-17 8-26 10-25 8-17 12-21 12-17 10-13 12-13 9-9 11-9 15-11 19-11 14-7 17-7 13-4 15-4-9-8-18-13-25-15-21-9-24-8-18-4-12-2-13-1h-19l-18 2-19 4-18 6-18 8-18 10-15 10-13 10-11 9-16 15-5 5h-3l2-5 9-9 7-8 14-13 14-11 11-8 13-8 21-11 18-7 17-5 13-3 16-2h35l22 3 20 5 22 8 25 12 21 13 12 9 14 11 13 12v7l-3 4-22 5-20 6-20 8-17 9-11 7-16 12-12 11-10 10-9 11-13 18-11 19-8 16-8 19-9 27-6 26-4 25-4 14-5 14-10 19-8 11-9 10-5 6-8 7-12 9-14 9-12 7-18 8-30 10-21 5-34 7h-7l-3 10-14 38-12 28-9 20-10 19-13 23-9 14-13 19-13 16-12 14-20 20-14 11-12 9-16 10-15 8-21 8-29 9-22 6-27 5-16 2h-44l-25-4-23-7-16-8-10-7-11-9-9-10-9-13-8-16-6-18-3-20 1-18 4-17 7-17 10-16 8-10 11-12 16-11 18-10 16-8 19-8 21-8 26-8 26-7 33-7 30-5 33-4 37-5 31-5 66-11 37-7 7-24 11-44 10-46 6-34 2-15 1-14v-35l-3-26-6-28-9-25-11-23-11-18-10-13-12-14-18-18-11-9-18-13-17-11-19-11-19-9-12-6-30-12-31-10-27-7-29-6-57-9-42-8-36-8-27-7-28-8-32-11-30-13-17-9-3-2v27l2 20 5 20 6 16 8 16 9 14 8 10 9 10 8 8 14 11 15 10 16 8 23 10 41 16 30 13 48 24 27 15 25 15 30 20 11 8 21 16 13 11 8 7 13 12 21 21 9 11 10 12 12 17 12 20 8 16 5 11 7 20 4 15 3 15-1 5-2-1-6-24-8-22-8-17-13-22-10-14-9-12-13-15-11-12-5-5-13-12-14-12-14-11-13-10-16-11-15-10-26-16-22-12-20-11-23-11-26-12-19-8-28-11-35-13-21-9-16-8-17-11-14-11-10-9-14-14-12-16-8-13-10-21-5-15-4-17-3-22v-29l3-24 8-3zm521 596-44 7-50 7-70 8-46 5-41 7-26 6-29 8-29 10-19 8-16 8-16 9-10 8-14 14-11 16-7 15-4 13-2 15v11l3 19 4 12 8 16 7 11 11 13 13 10 15 8 18 7 18 4 29 3h11l32-3 29-6 25-7 32-11 23-11 14-9 12-9 14-12 13-13 7-8 11-13 14-19 13-20 11-19 14-27 9-19 11-27 7-19 8-23-1-3z"/>
</svg>
